<svg width="112" height="112" viewBox="0 0 112 112" fill="none" xmlns="http://www.w3.org/2000/svg">
<path d="M14 56C14 61.5155 15.0864 66.977 17.1971 72.0727C19.3078 77.1684 22.4015 81.7984 26.3015 85.6985C30.2016 89.5985 34.8316 92.6922 39.9273 94.8029C45.023 96.9136 50.4845 98 56 98C61.5155 98 66.977 96.9136 72.0727 94.8029C77.1684 92.6922 81.7984 89.5985 85.6985 85.6985C89.5985 81.7984 92.6922 77.1684 94.8029 72.0727C96.9136 66.977 98 61.5155 98 56C98 44.8609 93.575 34.178 85.6985 26.3015C77.822 18.425 67.1391 14 56 14C44.8609 14 34.178 18.425 26.3015 26.3015C18.425 34.178 14 44.8609 14 56Z" stroke="black" stroke-width="8" stroke-linecap="round" stroke-linejoin="round"/>
<path d="M56 32.666V55.9993L70 69.9993" stroke="black" stroke-width="8" stroke-linecap="round" stroke-linejoin="round"/>
</svg>
