<svg width="154" height="154" viewBox="0 0 154 154" fill="none" xmlns="http://www.w3.org/2000/svg">
<path d="M38.5 32.0833C38.5 28.6797 39.8521 25.4155 42.2588 23.0088C44.6655 20.6021 47.9297 19.25 51.3333 19.25H102.667C106.07 19.25 109.334 20.6021 111.741 23.0088C114.148 25.4155 115.5 28.6797 115.5 32.0833V121.917C115.5 125.32 114.148 128.584 111.741 130.991C109.334 133.398 106.07 134.75 102.667 134.75H51.3333C47.9297 134.75 44.6655 133.398 42.2588 130.991C39.8521 128.584 38.5 125.32 38.5 121.917V32.0833ZM102.667 32.0833H51.3333V121.917H102.667V32.0833Z" fill="black"/>
<path d="M83.4163 109.083C83.4163 110.784 82.7403 112.417 81.5369 113.62C80.3336 114.823 78.7015 115.499 76.9997 115.499C75.2979 115.499 73.6658 114.823 72.4624 113.62C71.259 112.417 70.583 110.784 70.583 109.083C70.583 107.381 71.259 105.749 72.4624 104.545C73.6658 103.342 75.2979 102.666 76.9997 102.666C78.7015 102.666 80.3336 103.342 81.5369 104.545C82.7403 105.749 83.4163 107.381 83.4163 109.083Z" fill="black"/>
</svg>
