<svg width="250" height="250" viewBox="0 0 250 250" fill="none" xmlns="http://www.w3.org/2000/svg">
<path d="M43.3232 95.1465C36.6878 95.1465 31.3232 100.521 31.3232 107.146V143.146C31.3232 149.771 36.6878 155.146 43.3232 155.146H206.636C213.261 155.146 218.636 149.782 218.636 143.146V107.146C218.636 100.521 213.261 95.1465 206.636 95.1465M182.75 125.146H151.313" stroke="black" stroke-width="11.5" stroke-linecap="round" stroke-linejoin="round"/>
<path d="M182.75 65.032H151.313M43.3233 155.147C36.6879 155.147 31.3233 160.522 31.3233 167.147V203.147C31.3233 209.772 36.6879 215.147 43.3233 215.147H206.636C213.261 215.147 218.636 209.772 218.636 203.147V167.147C218.636 160.522 213.261 155.147 206.636 155.147M182.75 185.147H151.313M31.2921 47.4382L31.3962 83.4382C31.4171 90.0632 36.8129 95.4174 43.4379 95.407L206.75 94.8861C209.931 94.8751 212.977 93.6017 215.22 91.3457C217.462 89.0897 218.717 86.0357 218.709 82.8549L218.605 46.8549C218.599 45.279 218.283 43.7197 217.675 42.2659C217.067 40.812 216.179 39.4922 215.06 38.3818C213.942 37.2714 212.616 36.392 211.158 35.794C209.7 35.196 208.139 34.8911 206.563 34.8966L43.2504 35.407C36.6254 35.4278 31.2712 40.8236 31.2921 47.4382Z" stroke="black" stroke-width="11.5" stroke-linecap="round" stroke-linejoin="round"/>
</svg>
