<svg width="215" height="215" viewBox="0 0 215 215" fill="none" xmlns="http://www.w3.org/2000/svg">
<path d="M107.5 197.083C86.7462 191.857 69.6119 179.948 56.0968 161.357C42.5816 142.765 35.827 122.125 35.833 99.4369V44.791L107.5 17.916L179.166 44.791V99.4369C179.166 122.131 172.412 142.774 158.903 161.366C145.393 179.957 128.259 191.863 107.5 197.083ZM107.5 178.27C121.982 173.791 134.076 164.943 143.781 151.727C153.486 138.51 159.159 123.768 160.802 107.499H107.5V36.9525L53.7497 57.1087V103.468C53.7497 104.513 53.899 105.857 54.1976 107.499H107.5V178.27Z" fill="#96193B"/>
</svg>
