<svg width="256" height="256" viewBox="0 0 256 256" fill="none" xmlns="http://www.w3.org/2000/svg">
<path d="M76 154C69.2755 154 62.7019 155.994 57.1106 159.73C51.5194 163.466 47.1615 168.776 44.5881 174.989C42.0147 181.201 41.3414 188.038 42.6533 194.633C43.9652 201.228 47.2034 207.287 51.9584 212.042C56.7134 216.797 62.7716 220.035 69.3669 221.347C75.9623 222.659 82.7986 221.985 89.0113 219.412C95.2239 216.839 100.534 212.481 104.27 206.889C108.006 201.298 110 194.725 110 188C110 178.983 106.418 170.335 100.042 163.958C93.6654 157.582 85.0174 154 76 154ZM76 210C71.6488 210 67.3954 208.71 63.7775 206.292C60.1596 203.875 57.3398 200.439 55.6747 196.419C54.0095 192.399 53.5739 187.976 54.4227 183.708C55.2716 179.44 57.3669 175.52 60.4437 172.444C63.5204 169.367 67.4404 167.272 71.708 166.423C75.9756 165.574 80.3991 166.01 84.4191 167.675C88.439 169.34 91.875 172.16 94.2923 175.777C96.7097 179.395 98 183.649 98 188C98 190.889 97.431 193.75 96.3254 196.419C95.2198 199.088 93.5993 201.513 91.5564 203.556C89.5135 205.599 87.0882 207.22 84.4191 208.325C81.7499 209.431 78.8891 210 76 210ZM43.76 107.76L59.52 92L43.76 76.24C42.7002 75.1026 42.1232 73.5982 42.1506 72.0438C42.178 70.4894 42.8077 69.0063 43.907 67.907C45.0063 66.8077 46.4894 66.178 48.0438 66.1506C49.5982 66.1232 51.1026 66.7002 52.24 67.76L68 83.52L83.76 67.76C84.8974 66.7002 86.4018 66.1232 87.9562 66.1506C89.5106 66.178 90.9937 66.8077 92.093 67.907C93.1923 69.0063 93.822 70.4894 93.8494 72.0438C93.8768 73.5982 93.2999 75.1026 92.24 76.24L76.48 92L92.24 107.76C92.8295 108.309 93.3023 108.972 93.6303 109.708C93.9582 110.444 94.1345 111.238 94.1488 112.044C94.163 112.849 94.0148 113.65 93.713 114.397C93.4112 115.144 92.9621 115.823 92.3923 116.392C91.8226 116.962 91.1439 117.411 90.3968 117.713C89.6497 118.015 88.8495 118.163 88.0438 118.149C87.2382 118.135 86.4437 117.958 85.7077 117.63C84.9717 117.302 84.3093 116.829 83.76 116.24L68 100.48L52.24 116.24C51.1026 117.3 49.5982 117.877 48.0438 117.849C46.4894 117.822 45.0063 117.192 43.907 116.093C42.8077 114.994 42.178 113.511 42.1506 111.956C42.1232 110.402 42.7002 108.897 43.76 107.76ZM228.24 203.76C228.83 204.309 229.302 204.972 229.63 205.708C229.958 206.444 230.135 207.238 230.149 208.044C230.163 208.849 230.015 209.65 229.713 210.397C229.411 211.144 228.962 211.823 228.392 212.392C227.823 212.962 227.144 213.411 226.397 213.713C225.65 214.015 224.849 214.163 224.044 214.149C223.238 214.135 222.444 213.958 221.708 213.63C220.972 213.302 220.309 212.829 219.76 212.24L204 196.48L188.24 212.24C187.103 213.3 185.598 213.877 184.044 213.849C182.489 213.822 181.006 213.192 179.907 212.093C178.808 210.994 178.178 209.511 178.151 207.956C178.123 206.402 178.7 204.897 179.76 203.76L195.52 188L179.76 172.24C178.7 171.103 178.123 169.598 178.151 168.044C178.178 166.489 178.808 165.006 179.907 163.907C181.006 162.808 182.489 162.178 184.044 162.151C185.598 162.123 187.103 162.7 188.24 163.76L204 179.52L219.76 163.76C220.897 162.7 222.402 162.123 223.956 162.151C225.511 162.178 226.994 162.808 228.093 163.907C229.192 165.006 229.822 166.489 229.849 168.044C229.877 169.598 229.3 171.103 228.24 172.24L212.48 188L228.24 203.76ZM182.55 112.3C176.55 133.96 158 152.68 137.46 157.82C136.983 157.94 136.492 158 136 158C134.536 158 133.122 157.465 132.025 156.496C130.928 155.526 130.223 154.189 130.044 152.736C129.864 151.282 130.222 149.814 131.051 148.606C131.879 147.399 133.12 146.536 134.54 146.18C150.83 142.11 166.16 126.51 170.98 109.09C174.31 97.09 174.37 78.85 155.76 60.24L150 54.48V80C150 81.5913 149.368 83.1174 148.243 84.2426C147.117 85.3679 145.591 86 144 86C142.409 86 140.883 85.3679 139.757 84.2426C138.632 83.1174 138 81.5913 138 80V40C138 38.4087 138.632 36.8826 139.757 35.7574C140.883 34.6321 142.409 34 144 34H184C185.591 34 187.117 34.6321 188.243 35.7574C189.368 36.8826 190 38.4087 190 40C190 41.5913 189.368 43.1174 188.243 44.2426C187.117 45.3679 185.591 46 184 46H158.48L164.24 51.76C182 69.47 188.45 91 182.55 112.3Z" fill="black"/>
</svg>
