<svg width="24" height="24" viewBox="0 0 24 24" fill="none" xmlns="http://www.w3.org/2000/svg">
<path d="M4.5 0H21V24H4.5C4.08594 24 3.69922 23.9219 3.33984 23.7656C2.98047 23.6094 2.66016 23.3945 2.37891 23.1211C2.09766 22.8477 1.88281 22.5312 1.73438 22.1719C1.58594 21.8125 1.50781 21.4219 1.5 21V3C1.5 2.58594 1.57812 2.19922 1.73438 1.83984C1.89062 1.48047 2.10547 1.16016 2.37891 0.878906C2.65234 0.597656 2.96875 0.382812 3.32812 0.234375C3.6875 0.0859375 4.07812 0.0078125 4.5 0ZM19.5 22.5V19.5H4.5C4.28906 19.5 4.09375 19.5391 3.91406 19.6172C3.73438 19.6953 3.57812 19.8008 3.44531 19.9336C3.3125 20.0664 3.20312 20.2266 3.11719 20.4141C3.03125 20.6016 2.99219 20.7969 3 21C3 21.2109 3.03906 21.4062 3.11719 21.5859C3.19531 21.7656 3.30078 21.9219 3.43359 22.0547C3.56641 22.1875 3.72656 22.2969 3.91406 22.3828C4.10156 22.4688 4.29688 22.5078 4.5 22.5H19.5ZM19.5 18V1.5H4.5C4.28906 1.5 4.09375 1.53906 3.91406 1.61719C3.73438 1.69531 3.57812 1.80078 3.44531 1.93359C3.3125 2.06641 3.20312 2.22656 3.11719 2.41406C3.03125 2.60156 2.99219 2.79688 3 3V18.3984C3.46875 18.1328 3.96875 18 4.5 18H19.5ZM10.5 15V7.5H12V15H10.5ZM10.5 6V4.5H12V6H10.5Z" fill="white"/>
</svg>
