<svg width="16" height="15" viewBox="0 0 16 15" fill="none" xmlns="http://www.w3.org/2000/svg">
<path fill-rule="evenodd" clip-rule="evenodd" d="M11.3775 0.673492C11.9579 0.67346 12.5164 0.895221 12.9387 1.2934C13.361 1.69158 13.6152 2.23608 13.6492 2.8155L13.653 2.94899V6.24847L14.1035 6.04822C14.5693 5.84115 15.1063 6.162 15.1654 6.65351L15.17 6.74149V12.8095C15.1701 13.1922 15.0256 13.5608 14.7653 13.8415C14.5051 14.1221 14.1484 14.294 13.7668 14.3227L13.653 14.3265H1.517C1.13428 14.3266 0.765655 14.1821 0.485024 13.9218C0.204393 13.6616 0.0324967 13.3049 0.00379259 12.9233L0 12.8095V6.74149C0 6.23178 0.511987 5.87149 0.983774 6.01712L1.06721 6.04822L1.517 6.24847V2.94899C1.51697 2.36858 1.73873 1.81009 2.13691 1.3878C2.53509 0.96551 3.07959 0.711336 3.659 0.677285L3.7925 0.673492H11.3775ZM13.653 7.90882L8.2009 10.3315C8.007 10.4176 7.79718 10.4621 7.585 10.4621C7.37282 10.4621 7.163 10.4176 6.9691 10.3315L1.517 7.90958V12.8095H13.653V7.90882ZM11.3775 2.19049H3.7925C3.59133 2.19049 3.39841 2.27041 3.25616 2.41265C3.11391 2.5549 3.034 2.74783 3.034 2.94899V6.92277L7.585 8.94569L12.136 6.92277V2.94899C12.136 2.74783 12.0561 2.5549 11.9138 2.41265C11.7716 2.27041 11.5787 2.19049 11.3775 2.19049ZM7.585 4.46599C7.77833 4.46621 7.96427 4.54023 8.10485 4.67295C8.24543 4.80566 8.33003 4.98705 8.34136 5.18004C8.35268 5.37303 8.28989 5.56307 8.16581 5.71132C8.04173 5.85957 7.86572 5.95485 7.67374 5.97768L7.585 5.98299H6.068C5.87467 5.98278 5.68872 5.90875 5.54815 5.77604C5.40757 5.64332 5.32297 5.46194 5.31164 5.26894C5.30031 5.07595 5.36311 4.88591 5.48719 4.73766C5.61127 4.58941 5.78728 4.49414 5.97926 4.4713L6.068 4.46599H7.585Z" fill="white"/>
</svg>
