<svg width="24" height="24" viewBox="0 0 24 24" fill="none" xmlns="http://www.w3.org/2000/svg">
<g clip-path="url(#clip0_77_571)">
<path d="M14.4802 2.4075C14.3641 1.90637 14.0747 1.46237 13.663 1.15385C13.2514 0.845319 12.7441 0.692095 12.2305 0.721214C11.7169 0.750333 11.2301 0.959922 10.856 1.313C10.4819 1.66607 10.2446 2.13994 10.1858 2.65098C10.1271 3.16202 10.2507 3.67739 10.535 4.10614C10.8192 4.53489 11.2457 4.84946 11.7393 4.99435C12.2329 5.13924 12.7618 5.10513 13.2327 4.89805C13.7035 4.69096 14.0861 4.32421 14.3129 3.8625C15.6938 4.17667 16.9774 4.82214 18.053 5.7432C19.1286 6.66426 19.964 7.83324 20.4869 9.14925L21.8182 8.62575C21.2022 7.06485 20.2099 5.6804 18.9297 4.59554C17.6495 3.51068 16.121 2.75905 14.4802 2.4075ZM12.3637 3.636C12.2662 3.63913 12.1691 3.62264 12.0782 3.58751C11.9872 3.55237 11.9043 3.49932 11.8342 3.43149C11.7642 3.36366 11.7085 3.28244 11.6705 3.19266C11.6324 3.10289 11.6128 3.00638 11.6128 2.90887C11.6128 2.81137 11.6324 2.71486 11.6705 2.62509C11.7085 2.53531 11.7642 2.45409 11.8342 2.38626C11.9043 2.31843 11.9872 2.26538 12.0782 2.23024C12.1691 2.19511 12.2662 2.17862 12.3637 2.18175C12.5566 2.18175 12.7417 2.2584 12.8781 2.39483C13.0145 2.53126 13.0912 2.71631 13.0912 2.90925C13.0912 3.1022 13.0145 3.28724 12.8781 3.42367C12.7417 3.5601 12.5566 3.636 12.3637 3.636ZM9.16344 4.2405L8.62569 2.91C7.06479 3.52601 5.68034 4.51826 4.59548 5.79847C3.51062 7.07869 2.75899 8.60718 2.40744 10.248C1.90631 10.3641 1.46231 10.6535 1.15379 11.0651C0.845258 11.4768 0.692034 11.9841 0.721153 12.4977C0.750272 13.0113 0.959861 13.4981 1.31294 13.8722C1.66601 14.2463 2.13988 14.4836 2.65092 14.5424C3.16196 14.6011 3.67733 14.4775 4.10608 14.1932C4.53482 13.909 4.8494 13.4825 4.99429 12.9889C5.13918 12.4953 5.10507 11.9664 4.89799 11.4955C4.6909 11.0247 4.32414 10.6421 3.86244 10.4152C4.1779 9.0328 4.82548 7.74804 5.74913 6.67215C6.67278 5.59625 7.84469 4.76163 9.16344 4.2405ZM2.90844 13.092C2.8129 13.092 2.7183 13.0732 2.63004 13.0366C2.54177 13.0001 2.46157 12.9465 2.39402 12.8789C2.32646 12.8114 2.27288 12.7312 2.23632 12.6429C2.19976 12.5546 2.18094 12.46 2.18094 12.3645C2.18094 12.269 2.19976 12.1744 2.23632 12.0861C2.27288 11.9978 2.32646 11.9176 2.39402 11.8501C2.46157 11.7825 2.54177 11.7289 2.63004 11.6924C2.7183 11.6558 2.8129 11.637 2.90844 11.637C3.10138 11.637 3.28643 11.7136 3.42286 11.8501C3.55929 11.9865 3.63594 12.1716 3.63594 12.3645C3.63594 12.5574 3.55929 12.7425 3.42286 12.8789C3.28643 13.0154 3.10138 13.092 2.90844 13.092ZM12.3637 19.6373C11.958 19.6386 11.5606 19.753 11.2163 19.9676C10.872 20.1822 10.5943 20.4886 10.4144 20.8522C9.03341 20.5381 7.74959 19.8926 6.6738 18.9714C5.59802 18.0502 4.76261 16.881 4.23969 15.5648L2.90919 16.1025C3.52721 17.666 4.52277 19.0522 5.80701 20.1372C7.09124 21.2223 8.62417 21.9725 10.2689 22.3208C10.3634 22.7212 10.5691 23.0867 10.8624 23.3752C11.1556 23.6638 11.5244 23.8636 11.9263 23.9515C12.3282 24.0395 12.7468 24.0121 13.1337 23.8725C13.5207 23.7329 13.8604 23.4868 14.1135 23.1625C14.3667 22.8382 14.523 22.449 14.5645 22.0397C14.606 21.6304 14.5309 21.2177 14.348 20.8492C14.1651 20.4807 13.8818 20.1714 13.5307 19.957C13.1796 19.7425 12.775 19.6317 12.3637 19.6373ZM12.3637 22.5465C12.1707 22.5465 11.9857 22.4699 11.8493 22.3334C11.7128 22.197 11.6362 22.0119 11.6362 21.819C11.6362 21.6261 11.7128 21.441 11.8493 21.3046C11.9857 21.1681 12.1707 21.0915 12.3637 21.0915C12.5566 21.0915 12.7417 21.1681 12.8781 21.3046C13.0145 21.441 13.0912 21.6261 13.0912 21.819C13.0912 22.0119 13.0145 22.197 12.8781 22.3334C12.7417 22.4699 12.5566 22.5465 12.3637 22.5465ZM23.9999 12.3638C24.0013 11.9743 23.8984 11.5917 23.702 11.2554C23.5055 10.9192 23.2227 10.6416 22.8829 10.4515C22.543 10.2614 22.1585 10.1657 21.7692 10.1743C21.3798 10.183 20.9999 10.2956 20.6688 10.5005C20.3377 10.7055 20.0674 10.9953 19.8861 11.3399C19.7047 11.6845 19.6189 12.0713 19.6374 12.4603C19.656 12.8493 19.7783 13.2262 19.9916 13.552C20.205 13.8777 20.5016 14.1405 20.8507 14.313C20.5364 15.6939 19.8909 16.9776 18.9697 18.0532C18.0485 19.1289 16.8793 19.9642 15.5632 20.487L16.1017 21.8183C17.6652 21.2002 19.0514 20.2047 20.1364 18.9204C21.2215 17.6362 21.9716 16.1033 22.3199 14.4585C22.7934 14.3465 23.2158 14.0796 23.5202 13.7001C23.8246 13.3205 23.9934 12.8502 23.9999 12.3638ZM21.8174 13.0913C21.6245 13.0913 21.4395 13.0146 21.303 12.8782C21.1666 12.7417 21.0899 12.5567 21.0899 12.3638C21.0899 12.1708 21.1666 11.9858 21.303 11.8493C21.4395 11.7129 21.6245 11.6363 21.8174 11.6362C22.0104 11.6363 22.1954 11.7129 22.3319 11.8493C22.4683 11.9858 22.5449 12.1708 22.5449 12.3638C22.5449 12.5567 22.4683 12.7417 22.3319 12.8782C22.1954 13.0146 22.0104 13.0913 21.8174 13.0913Z" fill="white"/>
<path d="M14.3926 12.2625C14.8063 11.8584 15.0903 11.3402 15.2082 10.774C15.3261 10.2078 15.2726 9.61933 15.0544 9.0837C14.8363 8.54807 14.4635 8.08961 13.9835 7.76686C13.5036 7.44412 12.9384 7.27174 12.3601 7.27174C11.7817 7.27174 11.2165 7.44412 10.7366 7.76686C10.2566 8.08961 9.88381 8.54807 9.66567 9.0837C9.44753 9.61933 9.39399 10.2078 9.51189 10.774C9.62978 11.3402 9.91376 11.8584 10.3276 12.2625C9.83502 12.5953 9.43158 13.0437 9.15256 13.5685C8.87353 14.0934 8.72743 14.6786 8.72705 15.273V16.7273H15.9998V15.2723C15.9987 14.6772 15.8515 14.0916 15.5713 13.5667C15.2911 13.0418 14.8863 12.5945 14.3926 12.2625ZM10.9088 10.1813C10.9088 9.99018 10.9464 9.80098 11.0196 9.62445C11.0927 9.44792 11.1999 9.28752 11.335 9.15241C11.4701 9.0173 11.6305 8.91013 11.807 8.83701C11.9835 8.76389 12.1727 8.72625 12.3638 8.72625C12.5549 8.72625 12.7441 8.76389 12.9206 8.83701C13.0971 8.91013 13.2575 9.0173 13.3926 9.15241C13.5278 9.28752 13.6349 9.44792 13.708 9.62445C13.7812 9.80098 13.8188 9.99018 13.8188 10.1813C13.8188 10.5671 13.6655 10.9372 13.3926 11.2101C13.1198 11.483 12.7497 11.6363 12.3638 11.6363C11.9779 11.6363 11.6078 11.483 11.335 11.2101C11.0621 10.9372 10.9088 10.5671 10.9088 10.1813ZM10.1813 15.2723C10.1759 14.9823 10.2284 14.6942 10.3356 14.4247C10.4429 14.1552 10.6028 13.9099 10.8059 13.7029C11.0091 13.4959 11.2515 13.3315 11.5189 13.2193C11.7863 13.1071 12.0734 13.0493 12.3634 13.0493C12.6534 13.0493 12.9405 13.1071 13.208 13.2193C13.4754 13.3315 13.7178 13.4959 13.9209 13.7029C14.1241 13.9099 14.284 14.1552 14.3912 14.4247C14.4985 14.6942 14.5509 14.9823 14.5456 15.2723H10.1813Z" fill="white"/>
</g>
<defs>
<clipPath id="clip0_77_571">
<rect width="24" height="24" fill="white"/>
</clipPath>
</defs>
</svg>
